<?xml version="1.0" standalone="no"?>
<!DOCTYPE svg PUBLIC "-//W3C//DTD SVG 20010904//EN"
 "http://www.w3.org/TR/2001/REC-SVG-20010904/DTD/svg10.dtd">
<svg version="1.0" xmlns="http://www.w3.org/2000/svg"
 width="2547.000000pt" height="2547.000000pt" viewBox="0 0 2547.000000 2547.000000"
 preserveAspectRatio="xMidYMid meet">

<g transform="translate(0.000000,2547.000000) scale(0.100000,-0.100000)"
fill="#000000" stroke="none">
<path d="M12165 23130 c-158 -8 -256 -28 -326 -66 -125 -69 -186 -198 -294
-623 -51 -201 -69 -245 -114 -284 -41 -34 -73 -43 -226 -62 -319 -40 -1008
-195 -1158 -261 -74 -33 -100 -27 -121 26 -24 59 -20 95 12 131 25 28 48 37
212 80 252 68 583 150 770 192 85 19 181 45 213 57 117 44 186 120 231 257 54
163 103 443 81 464 -13 13 -466 -52 -749 -107 -504 -98 -1266 -318 -1425 -411
-61 -36 -118 -89 -146 -137 -50 -86 -57 -139 -64 -481 -6 -276 -10 -326 -25
-363 -31 -71 -87 -111 -252 -176 -194 -77 -589 -277 -588 -297 1 -15 2866
-4985 2884 -5003 4 -4 52 12 107 37 281 128 526 208 818 266 141 28 354 58
455 63 l45 3 0 2890 0 2890 -45 3 c-56 4 -70 21 -70 88 0 62 18 89 75 108 l40
14 0 354 0 353 -100 1 c-55 1 -163 -2 -240 -6z"/>
<path d="M12960 22777 l0 -344 153 -7 c83 -3 188 -13 232 -21 168 -32 241 -38
314 -27 166 25 282 116 385 304 45 82 96 219 96 259 0 70 -48 109 -150 123
-58 8 -886 56 -967 56 l-63 0 0 -343z"/>
<path d="M14524 22926 c-123 -40 -201 -135 -379 -461 -105 -191 -132 -227
-198 -265 -70 -40 -126 -44 -328 -26 -175 16 -509 36 -606 36 l-53 0 0 -2885
0 -2884 33 -5 c17 -3 84 -10 147 -16 356 -35 745 -138 1082 -287 84 -37 157
-68 161 -68 4 0 657 1125 1451 2500 1407 2436 1443 2500 1425 2518 -23 22 -24
48 -2 94 19 41 68 75 101 71 21 -3 42 29 194 292 94 162 173 302 175 310 3 11
-36 37 -139 92 -312 166 -435 194 -569 131 -97 -46 -175 -110 -392 -323 -212
-208 -240 -227 -317 -214 -19 4 -111 36 -205 71 -361 138 -951 318 -1121 342
-78 12 -94 23 -94 68 0 75 46 133 106 133 36 0 530 -140 847 -241 120 -38 254
-76 299 -85 155 -31 255 -3 373 107 99 93 285 319 285 347 0 19 -14 30 -84 62
-414 191 -1167 426 -1836 571 -122 26 -300 34 -356 15z m-175 -1161 c653 -71
1336 -297 1942 -644 140 -81 395 -246 453 -293 l29 -24 -1204 -2235 c-661
-1229 -1204 -2236 -1205 -2238 -2 -2 -31 22 -66 54 -129 117 -301 213 -473
263 -169 50 -228 57 -479 57 l-239 0 7 340 c3 187 18 1314 32 2505 15 1191 28
2167 30 2169 10 11 337 53 504 65 114 8 530 -4 669 -19z"/>
<path d="M8635 22296 c-249 -104 -418 -182 -664 -307 -129 -66 -236 -121 -238
-123 -4 -3 343 -606 356 -619 4 -4 73 27 152 69 79 43 218 114 309 158 201 98
258 146 285 239 17 60 15 116 -28 616 -1 14 -6 26 -12 27 -5 1 -77 -26 -160
-60z"/>
<path d="M7176 21540 c-289 -176 -396 -264 -441 -362 -57 -125 -44 -231 86
-668 21 -71 31 -128 31 -176 2 -110 -25 -150 -208 -308 -82 -71 -264 -233
-405 -362 -142 -128 -285 -257 -318 -287 -34 -29 -78 -77 -97 -106 -43 -64
-71 -79 -114 -61 -37 15 -80 74 -80 109 0 54 20 74 702 699 363 332 343 297
273 488 -18 49 -61 182 -95 295 -34 112 -65 207 -68 211 -15 16 -349 -242
-617 -477 -196 -171 -848 -815 -957 -945 -207 -247 -199 -352 56 -773 139
-230 156 -267 156 -342 0 -79 -20 -120 -118 -247 -184 -239 -368 -521 -349
-536 25 -19 5013 -2895 5027 -2898 9 -2 37 29 75 83 211 305 550 646 878 883
51 36 86 68 83 76 -8 20 -2877 4988 -2887 4998 -5 6 -17 2 -31 -11 -62 -56
-114 -50 -149 18 -30 59 -25 96 17 135 19 19 40 34 45 34 6 0 9 6 7 14 -4 20
-342 605 -349 606 -3 0 -71 -40 -153 -90z m1915 -3441 c734 -1189 1333 -2164
1332 -2166 -1 -3 -40 -18 -87 -33 -179 -58 -324 -149 -471 -295 -56 -55 -124
-131 -153 -170 -68 -93 -164 -254 -199 -337 l-29 -67 -2158 1282 -2158 1282 6
29 c9 44 112 287 179 421 177 356 412 692 705 1011 366 398 873 785 1381 1052
92 49 307 151 317 152 1 0 601 -972 1335 -2161z"/>
<path d="M17952 21318 l-181 -313 32 -20 c18 -10 163 -102 322 -204 438 -278
392 -253 451 -249 46 4 70 17 245 134 107 71 231 153 277 182 45 28 82 55 82
59 0 16 -419 322 -655 479 -136 91 -379 244 -388 244 -3 0 -86 -141 -185 -312z"/>
<path d="M16233 18341 c-794 -1375 -1443 -2503 -1443 -2508 0 -5 39 -36 88
-70 322 -228 654 -558 877 -873 36 -52 68 -97 70 -99 2 -1 1135 650 2517 1448
2215 1279 2515 1455 2528 1484 22 48 76 80 123 74 35 -5 63 9 335 165 163 94
303 177 310 183 11 10 0 35 -64 136 -191 307 -283 387 -454 397 -92 5 -206
-17 -456 -89 -98 -28 -209 -54 -246 -56 -101 -8 -157 22 -256 140 -134 159
-228 265 -486 547 -259 284 -282 307 -360 376 -57 50 -59 73 -7 125 45 45 86
51 137 20 29 -18 386 -396 694 -736 211 -233 231 -252 278 -260 31 -5 58 0
123 24 46 16 189 64 317 106 127 42 232 80 232 85 0 10 -179 244 -299 390
-256 312 -604 681 -916 971 -201 186 -282 251 -367 294 -163 81 -276 52 -647
-169 -220 -132 -237 -139 -326 -134 -82 4 -61 -8 -340 194 -155 112 -495 334
-512 334 -4 0 -657 -1125 -1450 -2499z"/>
<path d="M4444 19056 c-166 -208 -369 -492 -546 -765 -78 -121 -85 -136 -70
-146 9 -7 141 -83 292 -170 151 -87 284 -164 296 -172 19 -12 24 -6 96 110 42
67 117 181 167 252 202 288 209 365 51 576 -37 50 -104 151 -150 225 -46 75
-87 137 -90 138 -3 2 -23 -20 -46 -48z"/>
<path d="M3547 17697 c-89 -164 -258 -511 -276 -564 -50 -148 -23 -214 156
-379 232 -215 307 -295 345 -369 81 -157 73 -277 -37 -515 -66 -142 -114 -280
-166 -475 -23 -82 -60 -220 -84 -305 -24 -85 -46 -176 -50 -201 -8 -61 -32
-84 -81 -76 -77 13 -121 73 -111 152 7 50 164 584 251 850 81 251 96 309 96
377 0 116 -48 187 -243 356 -141 123 -184 152 -222 152 -59 0 -76 -29 -184
-323 -158 -428 -292 -860 -401 -1302 -76 -306 -93 -407 -88 -516 9 -189 90
-271 492 -499 185 -105 238 -144 265 -199 31 -61 33 -103 12 -253 -22 -160
-37 -322 -47 -510 l-7 -128 2936 0 2935 0 7 83 c33 411 141 820 322 1225 29
62 43 106 37 112 -5 5 -1125 653 -2489 1440 -1364 788 -2495 1441 -2513 1452
l-32 20 -21 -49 c-39 -90 -76 -110 -139 -78 -63 33 -77 99 -38 180 12 24 20
46 17 48 -12 12 -600 347 -606 347 -4 0 -21 -24 -36 -53z"/>
<path d="M21568 17573 l-307 -177 25 -46 c14 -25 78 -144 141 -265 243 -462
257 -483 347 -530 55 -27 67 -30 155 -29 97 1 325 27 393 45 97 25 103 73 32
236 -121 278 -449 933 -470 940 -5 2 -147 -77 -316 -174z"/>
<path d="M18580 15848 c-1383 -798 -2517 -1453 -2519 -1454 -2 -2 15 -45 38
-95 169 -362 272 -741 316 -1154 8 -77 15 -148 15 -157 0 -17 146 -18 2934
-18 2595 0 2935 2 2946 15 16 20 100 20 126 0 16 -12 80 -14 392 -15 l372 0 0
118 c0 260 -31 433 -93 514 -78 101 -170 143 -512 228 -252 63 -284 74 -333
115 -55 46 -72 93 -99 279 -45 315 -149 777 -239 1068 -25 78 -34 125 -30 143
13 51 131 75 173 36 27 -25 38 -58 117 -346 81 -294 101 -389 120 -575 23
-224 61 -325 159 -421 92 -90 241 -145 457 -168 113 -12 144 -7 170 27 29 36
26 106 -15 333 -135 761 -359 1624 -470 1814 -35 59 -97 119 -148 144 -98 47
-145 53 -492 60 -368 7 -364 6 -427 80 -18 21 -49 77 -67 123 -60 147 -194
429 -285 596 -48 89 -88 162 -89 162 -1 0 -1134 -653 -2517 -1452z m2330 900
c175 -223 318 -445 439 -683 351 -690 529 -1515 508 -2360 -6 -210 -20 -412
-31 -423 -5 -4 -5077 -154 -5081 -150 -2 2 6 37 18 78 17 62 21 104 21 250 1
158 -2 185 -26 282 -50 198 -134 385 -253 563 l-63 93 2182 1225 c1199 674
2186 1226 2193 1226 6 1 48 -45 93 -101z"/>
<path d="M12482 16180 c-71 -17 -103 -73 -152 -268 -13 -50 -23 -56 -135 -72
-91 -13 -321 -67 -349 -82 -20 -11 -36 3 -36 34 0 20 57 39 264 88 149 36 180
50 201 90 20 38 48 159 41 177 -7 17 -51 12 -240 -24 -138 -26 -417 -102 -463
-127 -70 -36 -93 -97 -93 -250 0 -50 -5 -89 -12 -99 -7 -9 -54 -34 -104 -55
-78 -34 -255 -128 -305 -164 -35 -24 -69 23 -36 50 6 5 92 52 190 102 105 55
184 102 193 116 13 19 15 42 9 129 -4 58 -12 105 -17 105 -45 0 -421 -192
-579 -296 -117 -78 -127 -110 -82 -276 33 -124 33 -124 -102 -243 -55 -48
-132 -119 -171 -157 -66 -65 -72 -68 -88 -53 -30 30 -30 30 169 211 77 70 143
134 146 142 5 13 -53 218 -65 230 -8 7 -140 -98 -264 -211 -148 -135 -289
-288 -298 -323 -11 -45 4 -95 57 -187 29 -50 52 -102 52 -117 0 -16 -25 -62
-68 -121 -37 -52 -91 -138 -121 -190 -29 -52 -57 -100 -62 -108 -6 -11 -12
-12 -30 -2 -12 6 -22 17 -22 24 0 13 157 271 197 324 14 18 27 49 30 70 4 33
-3 49 -51 123 -31 47 -60 86 -64 87 -10 3 -134 -167 -215 -295 -88 -141 -197
-355 -197 -390 0 -21 17 -44 74 -97 126 -120 140 -166 86 -285 -16 -36 -46
-127 -67 -203 -33 -122 -40 -137 -58 -135 -34 5 -29 55 26 233 29 94 54 189
57 213 4 41 2 44 -59 102 -70 67 -94 79 -115 58 -40 -40 -204 -589 -204 -682
0 -64 31 -101 135 -162 125 -74 129 -81 115 -183 -6 -45 -12 -154 -13 -242
l-2 -160 -25 3 c-24 3 -25 6 -31 103 -3 55 -1 149 4 208 12 125 3 156 -57 202
-45 34 -128 66 -146 55 -22 -14 -30 -95 -37 -397 -8 -395 -9 -393 187 -448
136 -39 136 -38 150 -142 7 -48 30 -155 50 -238 21 -82 36 -153 34 -157 -3 -5
-16 -8 -28 -8 -21 0 -26 11 -55 114 -17 63 -35 146 -40 185 -18 138 -75 194
-200 195 l-66 1 -3 -30 c-7 -75 109 -563 159 -671 34 -72 53 -79 201 -79 149
0 150 -1 193 -105 32 -77 116 -237 157 -299 27 -40 28 -45 13 -60 -12 -12 -19
-13 -33 -5 -21 14 -127 187 -143 234 -34 103 -79 154 -149 169 -48 10 -122 5
-154 -11 -14 -8 -17 -17 -12 -39 8 -43 151 -326 231 -458 124 -207 143 -218
309 -177 59 15 119 26 133 24 20 -2 47 -27 102 -93 42 -49 115 -129 164 -178
48 -48 87 -92 87 -97 0 -5 -10 -15 -22 -21 -20 -11 -34 1 -182 155 -119 123
-168 166 -185 166 -33 0 -152 -36 -175 -53 -13 -10 -17 -21 -13 -38 9 -33 220
-271 361 -406 165 -159 180 -161 357 -62 47 27 92 49 101 49 8 0 96 -52 194
-116 98 -64 191 -121 206 -126 31 -11 37 -38 14 -57 -19 -16 -36 -7 -242 125
-89 57 -170 104 -180 103 -22 0 -186 -108 -191 -125 -11 -35 513 -365 624
-394 60 -15 93 2 196 99 57 53 94 81 109 81 13 0 104 -27 203 -61 99 -33 198
-63 220 -67 34 -6 40 -11 40 -32 0 -40 -36 -36 -231 26 -98 32 -193 59 -210
62 -27 3 -38 -4 -102 -73 -40 -42 -72 -84 -72 -92 0 -44 612 -233 713 -220 53
7 95 50 165 165 l55 94 46 -6 c25 -3 139 -8 253 -12 215 -7 232 -11 204 -49
-11 -15 -38 -17 -238 -19 -211 -1 -227 -2 -248 -21 -24 -22 -90 -145 -90 -169
0 -15 24 -20 180 -36 120 -12 402 -12 497 0 128 17 153 43 189 199 17 79 43
116 86 125 12 2 109 23 213 47 105 23 201 42 215 43 26 1 36 -19 22 -42 -12
-18 -175 -63 -262 -71 -121 -13 -196 -58 -224 -136 -12 -32 -24 -118 -19 -132
11 -27 155 -5 460 72 235 59 271 73 309 118 26 31 26 34 20 129 -11 155 15
195 165 254 53 20 207 104 272 147 15 10 21 9 32 -6 7 -11 11 -25 9 -32 -5
-13 -143 -91 -291 -165 -119 -59 -124 -68 -116 -199 3 -58 7 -107 8 -109 4 -6
205 82 298 130 151 79 386 228 405 255 14 23 13 33 -22 153 -24 83 -35 137
-30 154 4 16 49 64 119 125 62 55 141 127 176 160 35 34 69 61 76 61 24 0 26
-41 2 -68 -68 -78 -109 -118 -159 -152 -95 -65 -140 -129 -140 -198 0 -40 27
-126 48 -152 l18 -22 84 63 c104 78 398 364 440 427 43 65 40 94 -25 217 -59
113 -66 148 -36 186 29 37 216 332 224 352 8 21 35 19 50 -4 10 -16 -27 -86
-150 -281 -77 -122 -79 -151 -18 -245 25 -39 52 -74 60 -77 41 -15 385 533
401 639 8 57 -8 85 -106 183 -44 45 -80 89 -80 98 0 9 32 113 70 232 39 119
70 222 70 229 0 18 35 17 50 -2 9 -11 0 -51 -46 -202 -81 -266 -81 -252 0
-329 84 -80 108 -84 135 -20 66 153 183 565 184 649 1 63 -21 91 -119 148
-110 65 -137 89 -137 125 0 16 6 94 13 174 7 80 10 178 7 217 -6 75 0 89 32
78 15 -5 19 -21 24 -113 4 -64 2 -147 -5 -205 -11 -92 -11 -101 7 -135 39 -72
168 -143 200 -111 22 22 35 196 35 465 0 272 -5 299 -61 333 -18 11 -68 29
-113 41 -106 28 -135 39 -145 59 -5 9 -16 61 -25 116 -9 55 -31 152 -47 215
-38 142 -38 140 -17 153 14 9 21 8 32 -3 17 -18 76 -238 76 -284 0 -50 27
-130 52 -154 32 -29 87 -50 151 -58 79 -9 82 -1 51 167 -33 178 -109 473 -137
528 -37 76 -59 85 -207 91 -100 4 -133 9 -145 21 -9 9 -38 63 -64 120 -26 57
-73 148 -104 201 -61 105 -66 122 -40 132 26 10 43 -14 142 -200 50 -93 102
-181 115 -193 24 -22 31 -23 108 -18 101 6 118 12 118 42 0 27 -142 317 -220
450 -134 228 -159 241 -349 189 -105 -29 -132 -25 -168 24 -27 37 -252 283
-277 303 -17 14 -18 19 -7 33 7 9 21 16 30 16 10 0 86 -74 170 -165 84 -91
160 -165 169 -165 20 0 203 59 215 69 12 12 -159 217 -293 352 -161 162 -209
199 -259 206 -47 6 -75 -4 -181 -64 -41 -24 -87 -43 -101 -43 -16 0 -57 22
-103 55 -73 53 -291 188 -318 198 -17 6 2 41 24 45 13 3 215 -118 337 -201 24
-16 53 -29 66 -29 12 0 64 28 115 62 l94 63 -25 20 c-161 131 -538 357 -623
372 -54 11 -89 -9 -188 -102 -48 -46 -94 -83 -102 -83 -8 0 -50 14 -93 30 -92
36 -338 110 -364 110 -23 0 -25 32 -4 50 13 11 48 3 204 -43 104 -32 207 -57
229 -57 46 0 76 21 143 102 41 48 42 51 24 64 -85 63 -650 223 -729 207 -38
-8 -83 -57 -131 -144 -64 -116 -48 -112 -333 -97 l-243 12 3 25 3 26 115 3
c63 2 152 -2 198 -8 107 -16 158 0 200 63 57 86 68 142 30 156 -29 10 -420 32
-558 30 -58 -1 -120 -5 -138 -9z m561 -95 c28 -8 33 -20 17 -45 -8 -13 -45
-15 -228 -15 l-218 0 -35 -26 c-48 -37 -91 -119 -87 -166 l3 -36 235 -1 c129
-1 283 -8 342 -15 89 -11 110 -11 124 -1 8 8 44 57 79 111 90 135 119 147 271
109 131 -34 348 -103 362 -115 15 -13 7 -41 -15 -49 -8 -3 -99 19 -201 50
-103 30 -201 56 -219 57 -66 2 -177 -106 -171 -166 3 -28 5 -29 173 -72 164
-42 318 -91 418 -134 27 -12 56 -21 64 -21 8 0 50 33 92 73 99 96 117 107 170
107 51 0 133 -39 281 -133 52 -33 116 -73 143 -90 26 -16 47 -35 47 -41 0 -17
-21 -36 -40 -36 -8 0 -76 38 -150 85 -215 135 -233 145 -265 145 -45 -1 -72
-20 -129 -91 l-52 -64 141 -79 c158 -88 299 -178 382 -243 31 -23 65 -43 75
-43 10 0 51 18 91 41 130 74 187 86 237 53 75 -50 350 -343 350 -373 0 -6 -15
-11 -34 -11 -30 0 -43 11 -128 108 -108 121 -177 187 -212 203 -34 16 -155
-22 -199 -60 l-32 -29 155 -154 c86 -84 191 -197 234 -251 43 -54 85 -101 94
-104 8 -4 56 4 106 16 50 12 114 21 143 21 86 0 111 -30 257 -310 42 -79 76
-152 76 -161 0 -19 -23 -31 -44 -23 -7 3 -49 71 -91 152 -124 235 -158 272
-240 271 -48 0 -124 -28 -138 -50 -7 -11 9 -46 69 -145 43 -71 115 -206 161
-300 46 -95 90 -175 99 -178 9 -3 75 -6 148 -6 90 0 138 -4 149 -13 20 -14 84
-227 122 -402 33 -150 32 -155 -5 -155 -33 0 -25 -23 -89 244 -24 99 -48 177
-58 188 -31 34 -95 60 -158 66 -91 7 -96 -3 -57 -131 47 -153 71 -255 97 -408
13 -77 28 -146 35 -154 6 -8 55 -28 108 -44 53 -17 111 -39 129 -50 61 -38 64
-53 61 -328 l-3 -248 -30 0 -30 0 0 242 c0 289 6 275 -127 304 -45 10 -89 18
-95 18 -10 1 -13 -54 -13 -244 0 -134 -5 -289 -11 -344 -9 -79 -9 -104 0 -115
7 -8 57 -43 112 -76 107 -66 129 -93 129 -157 0 -59 -89 -376 -130 -465 -16
-33 -21 -34 -45 -8 -18 19 -16 26 43 231 l61 211 -19 38 c-23 45 -100 115
-137 125 -16 4 -31 1 -38 -7 -7 -7 -32 -89 -55 -183 -23 -93 -66 -235 -96
-315 -30 -79 -54 -150 -54 -157 0 -7 33 -48 73 -91 97 -102 107 -118 107 -172
0 -49 -42 -132 -171 -336 -35 -56 -69 -110 -74 -119 -9 -15 -15 -16 -33 -6
-12 6 -22 20 -22 31 0 11 37 77 81 147 108 168 149 248 149 286 0 25 -12 42
-61 89 -98 93 -86 98 -172 -60 -82 -149 -174 -294 -243 -383 -24 -30 -44 -65
-44 -77 0 -12 23 -63 52 -113 66 -117 73 -165 29 -229 -16 -25 -67 -81 -113
-125 -87 -84 -217 -203 -231 -212 -12 -7 -37 17 -37 37 0 10 73 86 163 171 89
84 167 163 174 174 10 18 8 30 -12 73 -28 61 -82 142 -94 142 -5 0 -82 -73
-172 -163 -90 -90 -203 -194 -251 -231 -61 -47 -88 -74 -88 -88 0 -12 12 -69
26 -128 32 -129 28 -165 -20 -208 -34 -30 -133 -87 -338 -196 -100 -53 -107
-55 -113 -36 -13 41 5 57 156 136 209 110 238 129 253 166 12 27 12 39 -1 77
-8 26 -19 67 -25 94 -6 26 -15 47 -20 47 -5 0 -62 -32 -126 -71 -64 -39 -203
-113 -308 -165 l-192 -95 -4 -134 c-4 -159 -13 -177 -99 -212 -60 -23 -341
-91 -420 -100 l-51 -6 4 29 c3 28 7 30 108 56 58 16 148 37 201 47 171 35 185
49 181 191 -2 52 -4 95 -5 97 -2 1 -48 -11 -102 -28 -196 -59 -281 -79 -380
-90 -117 -12 -168 -32 -212 -82 -30 -34 -38 -60 -57 -178 -4 -20 -18 -47 -32
-60 -24 -22 -35 -24 -147 -27 -67 -2 -191 -1 -275 3 l-153 7 3 27 3 26 230 0
c285 0 290 2 317 127 6 29 11 65 12 80 l1 27 -275 4 c-151 3 -303 10 -338 16
-40 7 -69 8 -80 2 -9 -5 -44 -53 -77 -107 -33 -53 -72 -106 -87 -117 -50 -37
-121 -26 -406 61 -147 45 -153 48 -150 72 2 17 10 26 25 28 13 2 114 -24 225
-58 215 -65 238 -67 278 -25 29 31 92 157 83 166 -5 3 -42 14 -83 24 -151 36
-353 96 -451 135 -56 22 -110 40 -120 40 -11 0 -55 -34 -100 -75 -44 -41 -94
-82 -111 -91 -67 -35 -131 -8 -408 169 -69 45 -127 83 -130 85 -9 7 33 32 54
32 12 0 86 -41 166 -91 80 -51 160 -100 178 -111 39 -24 91 -26 123 -4 13 8
48 42 76 75 l53 59 -143 80 c-152 86 -296 177 -390 248 -31 24 -62 44 -68 44
-6 0 -37 -16 -68 -35 -32 -19 -82 -46 -112 -60 -116 -54 -150 -33 -389 231
-89 98 -116 134 -107 143 28 28 56 10 169 -106 62 -65 134 -139 159 -165 60
-62 87 -63 183 -6 39 23 76 46 82 50 8 6 -42 63 -150 171 -89 89 -195 203
-235 254 -39 50 -78 94 -85 96 -8 3 -47 -3 -87 -14 -41 -10 -103 -21 -139 -25
-91 -8 -114 9 -190 138 -94 161 -174 324 -167 342 10 25 44 19 65 -11 10 -16
58 -101 106 -191 63 -117 95 -166 114 -176 67 -34 175 -30 218 8 l24 21 -66
105 c-65 104 -234 432 -234 455 0 6 -11 22 -25 35 -23 22 -37 24 -154 30 -164
7 -174 14 -215 140 -35 109 -99 398 -92 416 9 23 49 13 62 -16 7 -14 31 -108
53 -210 56 -252 66 -263 217 -253 l91 6 -24 81 c-40 135 -92 355 -112 474 -10
62 -24 118 -30 126 -6 7 -48 23 -93 35 -114 30 -169 60 -191 102 -16 30 -18
59 -15 276 3 255 8 281 46 257 15 -10 17 -34 17 -231 0 -249 1 -252 82 -303
55 -35 91 -44 126 -31 l27 11 0 212 c0 117 5 271 12 342 l12 129 -25 19 c-13
11 -61 42 -107 70 -89 53 -122 92 -122 144 0 57 78 341 123 447 20 49 40 58
60 26 11 -18 -12 -111 -80 -323 -48 -150 -37 -190 62 -232 22 -9 53 -25 68
-36 16 -11 30 -18 33 -15 3 2 25 81 49 173 42 161 98 339 143 451 l21 52 -75
76 c-155 156 -154 177 27 463 34 53 74 116 88 139 30 50 64 56 69 12 2 -20
-26 -74 -108 -204 -61 -97 -113 -189 -116 -205 -7 -33 17 -84 51 -106 13 -9
37 -36 52 -60 15 -24 31 -44 35 -44 4 0 32 46 64 103 90 162 172 295 240 388
84 116 86 121 70 150 -7 13 -31 59 -54 101 -49 93 -59 137 -41 181 16 37 121
150 261 279 77 70 102 88 118 83 45 -14 24 -49 -102 -165 -138 -126 -202 -194
-212 -227 -5 -15 3 -42 25 -85 38 -76 56 -98 81 -98 10 0 78 60 158 140 77 76
183 173 235 216 53 42 101 87 108 101 9 20 7 42 -12 112 -27 105 -31 169 -12
205 8 15 44 45 80 68 99 63 382 209 392 202 5 -3 9 -18 9 -34 0 -26 -10 -33
-144 -103 -79 -41 -162 -87 -185 -102 -70 -47 -101 -120 -82 -193 11 -38 45
-92 59 -92 4 0 54 30 112 66 102 63 352 193 437 227 23 9 46 24 51 34 5 10 12
71 15 135 7 126 19 164 61 191 56 37 431 125 480 113 33 -8 36 -43 4 -51 -13
-3 -102 -25 -200 -49 -97 -23 -187 -50 -201 -59 -14 -9 -36 -40 -51 -68 -31
-63 -34 -127 -8 -159 l17 -21 115 34 c151 46 268 73 414 97 66 11 126 26 136
35 9 8 27 52 40 97 13 46 34 105 47 131 38 76 49 78 313 73 124 -3 237 -8 253
-11z"/>
<path d="M12600 15614 c-372 -32 -642 -91 -935 -206 -370 -146 -673 -345 -961
-632 -244 -244 -402 -463 -544 -751 -136 -278 -223 -559 -271 -875 -31 -204
-34 -605 -6 -795 68 -459 215 -848 453 -1207 726 -1094 2065 -1556 3309 -1144
432 144 797 369 1120 691 459 458 741 1035 831 1700 24 179 24 533 1 705 -82
586 -310 1091 -693 1530 -464 533 -1095 874 -1779 965 -117 15 -434 27 -525
19z m169 -168 c6 -7 15 -39 19 -70 l7 -56 45 37 c79 63 141 86 223 81 63 -3
87 -11 192 -60 139 -66 219 -88 329 -88 89 0 90 -6 12 -59 -53 -37 -102 -52
-189 -60 -68 -6 -73 -8 -85 -36 -38 -88 -65 -113 -130 -122 -23 -3 -42 -3 -42
0 0 4 13 26 30 49 16 24 35 63 41 88 35 133 -130 250 -257 182 -36 -19 -83
-80 -90 -117 -35 -188 158 -386 398 -411 138 -14 360 61 482 163 16 13 56 39
90 56 59 31 65 32 186 32 120 0 128 -1 192 -32 140 -66 220 -180 253 -358 28
-149 37 -158 195 -190 195 -38 313 -135 370 -301 22 -62 29 -172 15 -234 -10
-48 -59 -143 -110 -215 -184 -260 -188 -558 -11 -739 142 -146 326 -153 396
-15 40 77 18 169 -53 220 -72 52 -153 48 -221 -11 -18 -17 -39 -30 -45 -30
-17 0 -13 40 9 87 15 35 29 48 77 70 69 33 83 56 83 138 0 69 23 127 66 167
l29 27 2 -68 c2 -76 34 -184 84 -284 74 -146 97 -258 68 -334 -18 -48 -59
-100 -101 -128 -22 -15 -37 -30 -33 -33 4 -4 35 -7 70 -7 70 -1 95 -14 95 -51
0 -30 -32 -44 -101 -44 -30 0 -49 -4 -49 -11 0 -6 20 -29 44 -50 63 -56 90
-124 84 -214 -4 -58 -14 -90 -60 -190 -75 -161 -92 -221 -92 -328 l-1 -89 -29
34 c-48 56 -76 126 -76 193 0 79 -14 102 -80 133 -61 30 -85 63 -96 131 l-7
45 50 -42 c56 -48 100 -64 146 -55 94 18 157 92 157 184 0 51 -18 86 -69 132
-147 133 -423 -53 -472 -318 -27 -148 33 -362 141 -505 121 -158 145 -327 71
-487 -69 -148 -203 -236 -399 -262 -66 -9 -81 -15 -104 -41 -16 -17 -28 -42
-28 -58 0 -15 -7 -58 -15 -96 -53 -251 -246 -402 -487 -383 -83 7 -131 28
-258 112 -159 106 -268 145 -402 145 -237 0 -436 -147 -455 -336 -19 -180 174
-280 298 -155 68 68 68 150 0 243 l-32 43 36 3 c54 5 95 -24 127 -88 33 -68
50 -80 113 -80 69 0 132 -20 190 -60 45 -31 47 -34 29 -47 -12 -9 -32 -12 -59
-7 -74 11 -162 -13 -294 -78 -121 -60 -128 -62 -217 -66 -82 -4 -98 -2 -146
20 -30 14 -70 39 -90 56 -19 17 -38 29 -41 26 -2 -3 -3 -22 0 -43 8 -57 -10
-83 -55 -79 l-37 3 -3 68 -3 68 -39 -35 c-81 -73 -180 -104 -277 -87 -33 6
-104 34 -168 66 -121 61 -210 85 -319 85 l-69 0 24 26 c42 45 117 76 194 82
39 2 78 9 87 14 10 4 29 32 43 61 29 61 80 97 140 97 l37 0 -31 -35 c-84 -96
-85 -198 -1 -268 31 -26 87 -47 125 -47 37 1 102 38 131 75 24 31 29 50 32
106 4 59 0 77 -22 124 -95 194 -330 287 -570 225 -104 -26 -152 -49 -258 -121
-124 -84 -183 -109 -271 -116 -127 -9 -248 30 -332 108 -84 78 -134 181 -156
321 -15 97 -30 125 -77 137 -20 6 -48 11 -61 11 -41 0 -143 31 -203 61 -150
76 -238 221 -238 393 0 104 21 161 103 284 82 121 118 201 141 315 38 183 3
315 -116 443 -122 130 -257 157 -355 71 -85 -75 -84 -190 3 -267 70 -61 148
-58 233 9 l41 33 0 -39 c0 -54 -32 -101 -85 -124 -67 -30 -85 -59 -85 -138 0
-72 -31 -149 -76 -192 l-24 -22 0 64 c0 92 -21 168 -91 330 -78 182 -87 247
-45 334 16 32 45 70 72 91 24 20 41 40 38 45 -3 5 -27 9 -54 9 -68 0 -100 14
-100 44 0 39 25 51 102 49 37 -1 68 1 68 3 0 2 -28 32 -63 67 -110 108 -115
195 -21 400 69 151 98 257 92 343 l-4 64 29 -28 c49 -46 77 -113 77 -184 0
-84 14 -107 82 -140 63 -30 98 -80 98 -138 0 -38 -8 -38 -45 1 -57 61 -128 74
-202 38 -88 -42 -123 -133 -89 -224 78 -202 372 -124 493 131 31 64 37 91 41
159 7 138 -34 292 -108 401 -22 33 -55 82 -74 110 -58 85 -79 163 -74 275 3
84 8 104 37 163 61 124 189 220 332 247 109 20 136 28 161 49 25 19 31 36 62
175 35 152 122 273 241 331 57 28 66 29 190 29 146 0 152 -2 292 -97 149 -100
302 -158 418 -158 68 0 194 33 256 66 102 56 177 157 197 265 19 104 -35 190
-137 219 -87 24 -189 -44 -210 -138 -14 -66 -1 -108 51 -167 l42 -48 -47 5
c-62 7 -92 28 -122 88 -31 61 -65 80 -162 91 -80 9 -110 21 -168 72 l-40 34
81 0 c97 0 158 17 327 89 148 63 202 76 271 63 60 -11 102 -36 154 -93 l40
-43 6 30 c3 16 6 46 6 66 0 20 5 42 12 49 16 16 53 15 67 -2z m-293 -240 c24
-37 1 -80 -44 -84 -43 -4 -62 12 -62 52 0 41 16 56 57 56 23 0 37 -7 49 -24z
m620 -1 c16 -25 12 -63 -10 -77 -17 -12 -71 -9 -84 4 -7 7 -12 26 -12 43 0 40
16 55 57 55 24 0 37 -7 49 -25z m-2746 -2127 c13 -25 13 -31 0 -55 -30 -53
-110 -34 -110 25 0 63 79 84 110 30z m4862 15 c25 -22 24 -79 -1 -93 -34 -17
-69 -12 -86 14 -40 60 34 127 87 79z m-4864 -631 c42 -54 -35 -120 -92 -79
-12 9 -17 23 -14 47 5 56 71 76 106 32z m4870 6 c20 -20 15 -76 -7 -88 -34
-18 -69 -12 -87 15 -16 25 -12 63 10 77 17 12 71 9 84 -4z m-2757 -2118 c14
-8 19 -21 19 -50 0 -29 -5 -42 -19 -50 -47 -25 -92 -2 -93 47 -2 56 42 80 93
53z m630 -11 c15 -15 19 -28 14 -47 -17 -72 -115 -67 -115 5 0 57 61 82 101
42z"/>
<path d="M12706 15220 c9 -68 -11 -172 -48 -244 -57 -114 -194 -218 -343 -262
-87 -25 -246 -22 -350 7 -108 30 -149 34 -162 17 -7 -7 -18 -46 -27 -85 -26
-126 -82 -203 -180 -249 -57 -27 -158 -33 -217 -13 -46 16 -97 55 -120 93 -26
43 -25 121 3 166 l21 35 12 -50 c24 -103 69 -149 159 -161 88 -12 181 48 222
143 20 48 21 147 1 194 -39 95 -137 159 -243 159 -85 0 -145 -24 -210 -82
-100 -92 -145 -200 -148 -360 -1 -62 -7 -102 -15 -112 -10 -12 -33 -16 -100
-16 -248 0 -438 -139 -458 -335 -9 -86 11 -141 76 -205 37 -36 70 -60 97 -68
175 -51 352 80 323 240 -13 76 -55 113 -155 138 l-62 16 36 24 c53 37 135 35
185 -3 91 -69 121 -225 65 -333 -34 -66 -105 -128 -174 -154 -30 -11 -60 -20
-67 -20 -7 0 -29 -5 -49 -10 -60 -17 -64 -37 -31 -148 24 -84 28 -114 28 -222
0 -151 -20 -221 -96 -335 -104 -155 -236 -225 -400 -211 l-77 6 10 -38 9 -38
92 1 c85 0 98 -3 161 -34 98 -48 195 -146 241 -242 79 -167 84 -312 19 -538
-13 -47 -22 -86 -19 -89 2 -2 39 -11 81 -19 136 -25 223 -84 271 -181 23 -47
28 -70 28 -132 0 -81 -15 -121 -64 -173 -60 -65 -147 -77 -216 -30 l-40 27 53
8 c113 17 173 74 174 167 0 125 -103 221 -238 221 -83 0 -133 -19 -186 -70
-104 -101 -101 -279 7 -398 83 -93 198 -140 363 -149 127 -7 130 -10 130 -138
1 -247 153 -430 357 -429 154 1 255 101 255 254 0 76 -21 130 -70 178 -63 64
-135 84 -204 58 -72 -27 -106 -79 -121 -181 l-7 -50 -19 37 c-44 87 -31 190
32 243 72 60 204 69 304 20 95 -46 146 -124 175 -265 12 -59 22 -85 31 -83 8
0 59 14 114 29 86 25 118 29 230 29 110 0 140 -4 197 -23 168 -58 335 -235
354 -376 6 -39 -3 -101 -21 -148 -5 -13 2 -15 38 -14 l45 1 4 105 c3 91 7 113
32 165 40 80 141 180 232 227 161 85 335 90 571 17 36 -11 66 -19 68 -17 2 2
8 36 13 75 25 176 134 294 285 310 197 20 333 -159 222 -292 l-25 -30 6 32
c17 91 -82 203 -181 203 -74 0 -183 -89 -204 -166 -36 -128 18 -262 124 -310
79 -36 131 -40 213 -15 166 50 271 224 272 447 0 53 4 85 13 91 6 6 55 13 108
17 176 12 275 51 359 143 80 87 109 202 78 307 -17 57 -101 140 -159 157 -105
31 -198 8 -271 -68 -44 -45 -58 -79 -58 -137 0 -97 79 -176 177 -176 49 0 55
-12 18 -36 -63 -41 -149 -33 -212 21 -52 44 -75 102 -76 186 0 72 28 148 76
205 38 45 131 90 220 107 43 8 80 17 83 20 3 2 -6 45 -20 93 -64 227 -59 372
19 532 46 91 145 194 234 241 68 36 143 45 222 28 35 -7 36 -7 45 35 l10 43
-110 0 c-97 0 -117 3 -161 24 -61 30 -191 158 -227 223 -61 110 -72 154 -72
288 0 106 3 139 26 218 39 134 31 147 -100 177 -151 34 -246 148 -246 295 0
70 27 145 66 187 51 54 170 68 226 26 41 -30 36 -39 -21 -39 -88 -2 -152 -51
-175 -136 -33 -121 91 -257 234 -258 151 0 264 109 264 255 0 78 -20 137 -68
199 -78 104 -193 154 -377 165 -104 6 -110 7 -122 31 -8 15 -13 63 -13 118 0
243 -150 423 -354 422 -175 -1 -293 -160 -246 -332 15 -51 68 -118 115 -145
68 -38 178 -22 227 33 30 34 50 95 43 131 -5 26 -3 33 9 33 21 0 56 -72 56
-115 0 -74 -72 -163 -147 -184 -55 -16 -143 -13 -196 5 -56 19 -129 81 -162
139 -19 32 -55 163 -55 201 0 2 -9 8 -19 14 -15 7 -38 3 -98 -17 -72 -25 -90
-27 -238 -28 -143 0 -166 3 -216 23 -131 52 -242 147 -300 255 -30 56 -34 71
-37 165 -2 56 -5 102 -6 102 0 0 -16 4 -34 9 l-33 10 7 -49z m-1185 -519 c16
-13 23 -29 23 -55 0 -47 -22 -68 -70 -68 -69 0 -98 69 -49 117 29 30 64 32 96
6z m2530 -2 c17 -17 20 -29 16 -56 -8 -49 -24 -63 -68 -63 -48 0 -69 21 -69
70 0 29 6 43 22 54 31 22 74 20 99 -5z m-1437 -105 c14 -13 16 -58 16 -341 0
-290 -2 -328 -17 -345 -15 -17 -40 -18 -380 -18 -199 0 -363 4 -363 8 0 45
307 203 467 241 70 17 86 38 91 117 6 84 -14 119 -61 109 -270 -56 -599 -237
-808 -446 -73 -73 -169 -196 -169 -217 0 -5 12 -13 26 -16 14 -4 285 -6 602
-6 l577 1 17 -21 c24 -29 25 -136 2 -168 -15 -22 -20 -22 -221 -22 -249 0
-243 3 -243 -106 0 -64 3 -75 22 -88 20 -14 90 -16 563 -16 473 0 543 2 563
16 19 13 22 24 22 86 0 111 7 108 -241 108 -175 0 -210 2 -223 16 -22 21 -22
141 0 172 l15 22 600 0 c535 0 600 2 606 16 8 22 -10 52 -93 145 -202 230
-440 383 -768 494 -167 56 -171 55 -171 -55 0 -99 14 -113 150 -160 131 -44
252 -103 354 -174 l75 -51 -338 -3 c-357 -2 -406 2 -428 41 -10 16 -14 105
-16 333 -4 364 -7 351 87 340 344 -40 689 -177 955 -379 206 -156 427 -431
547 -678 40 -84 67 -79 -432 -79 -499 0 -479 3 -479 -74 0 -51 17 -113 33
-123 7 -4 222 -10 479 -13 l468 -5 36 -37 c32 -31 38 -45 42 -91 2 -33 0 -57
-7 -61 -6 -4 -381 -8 -833 -9 -912 -2 -870 1 -898 -67 -15 -35 -7 -117 13
-137 11 -11 182 -13 874 -13 765 0 862 -2 873 -15 27 -33 -14 -487 -51 -568
-6 -14 -22 -30 -36 -36 -16 -8 -171 -11 -493 -11 l-470 0 -16 -25 c-26 -40
-14 -133 22 -163 l27 -23 406 1 c223 1 416 1 429 1 53 -2 13 -101 -130 -313
-276 -413 -675 -681 -1166 -784 -158 -33 -261 -42 -273 -23 -5 8 -9 161 -9
341 0 284 2 329 16 342 13 14 62 16 385 16 203 0 369 -2 369 -4 0 -2 -33 -26
-72 -53 -100 -69 -214 -125 -344 -168 -60 -20 -118 -45 -128 -55 -24 -23 -33
-120 -17 -164 11 -27 14 -28 57 -22 63 8 240 68 338 115 226 106 440 278 605
486 l64 80 -626 5 c-344 3 -629 8 -633 12 -4 4 -9 41 -11 81 -6 113 -16 108
236 110 198 2 214 3 227 21 11 15 14 59 14 192 0 144 3 175 16 188 14 14 69
16 457 16 461 0 547 6 581 40 26 26 36 139 14 158 -11 9 -401 12 -1652 12
-900 0 -1641 -2 -1646 -5 -14 -9 -12 -129 2 -159 6 -14 20 -29 32 -33 12 -4
228 -6 481 -5 456 3 518 0 537 -30 4 -7 8 -90 8 -184 0 -131 3 -175 14 -190
13 -18 29 -19 227 -20 192 -2 214 -3 226 -20 19 -25 17 -134 -3 -162 l-15 -22
-615 0 c-346 0 -614 -4 -614 -9 0 -26 167 -217 264 -302 192 -167 392 -276
656 -358 36 -11 72 -22 81 -26 26 -10 47 21 55 82 14 108 5 119 -124 159 -117
35 -253 100 -359 171 l-88 58 375 3 c344 2 376 1 388 -15 15 -21 17 -659 2
-683 -13 -21 -92 -16 -246 15 -444 90 -812 316 -1097 675 -122 154 -247 357
-247 403 l0 26 440 3 c510 3 475 -4 475 102 0 49 -5 69 -19 85 -19 21 -24 21
-482 21 -323 0 -471 3 -488 11 -13 7 -30 23 -35 38 -17 41 -51 283 -58 417 -6
115 -5 122 16 143 l21 21 852 0 c598 -1 855 3 862 10 17 17 14 173 -3 194 -13
16 -75 17 -860 15 l-846 -1 -7 34 c-11 55 12 131 46 151 15 9 150 13 493 17
548 6 508 -3 508 106 0 110 28 104 -465 104 -230 0 -425 3 -434 6 -27 10 -18
53 25 133 283 517 729 851 1289 965 202 41 231 43 254 20z m-1733 -545 c17
-17 20 -29 15 -58 -3 -20 -13 -42 -23 -48 -24 -18 -73 -16 -95 4 -23 20 -24
80 -1 105 22 25 77 24 104 -3z m3813 5 c32 -32 28 -92 -8 -116 -18 -13 -71 -9
-91 6 -23 17 -27 85 -6 110 17 21 84 21 105 0z m-1594 -1654 c5 -8 9 -49 9
-92 0 -66 -3 -79 -19 -88 -26 -14 -675 -14 -701 0 -16 9 -19 22 -19 95 0 62 4
86 14 92 8 4 170 8 361 8 287 -1 348 -3 355 -15z m-2225 -875 c48 -47 19 -119
-48 -119 -50 0 -67 18 -67 70 0 33 5 46 22 58 32 23 65 20 93 -9z m3814 8 c55
-46 27 -127 -44 -127 -69 0 -99 71 -50 119 28 29 64 32 94 8z m-3172 -648 c27
-19 37 -59 22 -88 -16 -31 -28 -37 -71 -37 -49 0 -73 33 -64 85 10 53 66 73
113 40z m2533 -5 c43 -43 12 -123 -48 -123 -45 0 -72 28 -72 74 0 28 6 42 22
53 31 22 74 20 98 -4z"/>
<path d="M2373 14048 c-12 -13 -26 -41 -32 -63 -17 -65 -54 -534 -67 -847 l-7
-168 346 0 c191 0 347 1 347 3 0 1 5 67 10 147 5 80 19 191 30 248 23 117 25
178 9 254 -32 150 -129 253 -339 358 -181 91 -259 109 -297 68z"/>
<path d="M2263 12258 c8 -285 21 -382 67 -474 68 -139 186 -198 643 -320 206
-54 258 -81 287 -147 11 -24 27 -111 39 -205 36 -284 103 -592 215 -999 31
-110 56 -210 56 -222 0 -12 -11 -33 -25 -46 -19 -20 -34 -25 -74 -25 -42 0
-53 4 -74 30 -14 16 -29 44 -32 62 -4 18 -41 150 -81 293 -83 290 -109 410
-124 577 -28 306 -119 438 -356 517 -102 34 -299 66 -358 58 -99 -14 -106 -74
-46 -403 105 -581 205 -1000 350 -1464 153 -490 221 -537 734 -509 252 13 310
9 378 -28 67 -36 96 -80 164 -246 85 -208 265 -562 285 -561 14 1 5072 2915
5093 2934 5 5 -23 81 -63 174 -158 368 -254 739 -291 1129 l-13 127 -2935 0
-2935 0 7 -75 c9 -95 -6 -115 -85 -115 -42 0 -55 5 -79 28 -23 23 -29 41 -35
95 l-7 67 -356 0 -355 0 6 -252z m6464 55 c-17 -65 -21 -109 -21 -258 0 -169
2 -187 31 -295 51 -194 140 -386 257 -555 l55 -80 -27 -16 c-51 -31 -4330
-2429 -4344 -2434 -14 -6 -122 124 -237 283 -219 305 -440 751 -564 1137 -176
548 -259 1129 -244 1720 6 218 20 412 32 424 5 5 4722 148 4951 150 l131 1
-20 -77z"/>
<path d="M16425 12433 c-37 -441 -138 -840 -310 -1224 -30 -67 -52 -126 -48
-130 5 -4 1149 -665 2543 -1470 2326 -1343 2538 -1463 2575 -1461 50 3 101
-27 119 -70 12 -27 59 -58 327 -214 281 -162 315 -180 327 -165 28 34 172 332
197 404 45 136 31 249 -45 363 -18 27 -128 144 -244 259 -129 128 -219 226
-231 250 -35 73 -27 127 58 372 116 338 324 1002 331 1056 9 75 19 87 74 87
57 0 109 -29 118 -66 4 -14 4 -49 1 -77 -7 -63 -147 -542 -257 -882 -121 -370
-120 -433 4 -564 69 -72 296 -258 333 -272 64 -24 101 -4 141 76 54 109 238
642 338 980 78 264 194 716 224 874 30 154 25 274 -12 347 -52 100 -165 184
-477 355 -278 152 -305 203 -262 505 28 197 41 383 41 582 l0 162 -2929 0
-2929 0 -7 -77z"/>
<path d="M22500 12508 c0 -2 -2 -91 -4 -198 -3 -126 -10 -227 -21 -285 -29
-157 -34 -217 -24 -290 19 -138 91 -245 225 -334 117 -79 302 -161 361 -161
44 0 79 48 92 125 29 180 60 632 64 945 l2 195 -347 3 c-192 1 -348 1 -348 0z"/>
<path d="M7091 9215 c-1405 -811 -2555 -1476 -2557 -1478 -2 -2 12 -25 31 -52
19 -27 35 -60 35 -75 0 -48 -76 -97 -131 -85 -27 6 -99 75 -99 95 0 6 -5 10
-12 10 -10 0 -287 -156 -535 -302 l-83 -49 87 -142 c182 -300 273 -411 380
-463 46 -23 74 -29 147 -32 109 -5 211 15 471 89 245 70 319 70 399 0 10 -9
69 -79 131 -156 226 -282 575 -658 750 -808 87 -74 101 -97 83 -134 -17 -36
-74 -73 -112 -73 -17 0 -43 8 -57 18 -41 27 -498 499 -668 689 -282 318 -310
326 -683 203 -229 -75 -274 -115 -230 -205 65 -134 690 -828 1104 -1226 328
-316 407 -371 544 -377 122 -7 226 34 504 198 243 143 245 144 325 144 83 0
95 -5 255 -118 63 -44 214 -144 335 -222 l220 -142 16 26 c113 182 2939 5094
2935 5101 -3 5 -49 39 -101 76 -304 216 -633 545 -845 845 -40 58 -76 108 -79
112 -4 4 -1156 -656 -2560 -1467z"/>
<path d="M15763 10593 c-226 -321 -520 -618 -847 -857 -66 -49 -120 -95 -120
-102 1 -7 664 -1160 1473 -2561 l1471 -2549 39 4 c34 3 42 0 64 -30 36 -47 42
-80 22 -121 -14 -29 -14 -40 -4 -59 36 -69 324 -565 334 -576 10 -11 25 -6 81
30 38 25 146 91 239 148 262 161 311 221 286 349 -6 31 -40 151 -76 266 -94
303 -119 407 -112 475 9 100 34 133 231 303 330 285 779 700 820 757 47 65 78
68 130 10 40 -44 46 -85 21 -133 -16 -30 -247 -281 -362 -392 -40 -39 -119
-99 -176 -134 -227 -141 -326 -249 -384 -418 -35 -104 -37 -239 -4 -363 33
-125 101 -279 133 -303 l27 -20 43 28 c95 62 311 229 448 347 286 246 932 884
1071 1058 70 87 110 175 116 255 10 114 -41 239 -225 554 -107 184 -121 217
-121 281 -1 63 21 104 167 323 167 250 376 577 371 581 -8 8 -5065 2925 -5079
2931 -11 4 -34 -21 -77 -82z m2670 -1708 c955 -566 1736 -1033 1737 -1037 1
-20 -100 -261 -172 -408 -197 -410 -452 -769 -793 -1119 -380 -390 -784 -694
-1271 -959 -124 -68 -354 -177 -358 -170 -24 33 -2666 4321 -2666 4326 0 4 31
15 68 25 159 41 361 166 505 311 129 130 275 344 341 499 l27 65 424 -252
c232 -138 1204 -714 2158 -1281z"/>
<path d="M9601 6853 c-815 -1411 -1479 -2569 -1475 -2574 3 -5 13 -9 22 -9 9
0 32 -9 50 -20 37 -22 43 -60 17 -110 -34 -65 -91 -85 -162 -55 -20 9 -40 12
-44 8 -4 -5 -82 -138 -174 -298 -92 -159 -169 -293 -171 -297 -10 -16 400
-231 509 -266 86 -28 188 -29 257 -3 83 31 176 106 375 302 109 106 209 196
235 210 35 18 60 23 115 23 63 0 107 -12 415 -116 563 -190 846 -278 896 -278
45 0 82 -13 96 -34 15 -22 7 -82 -15 -121 -39 -68 -60 -68 -298 3 -218 65
-776 241 -949 299 -80 26 -116 34 -150 30 -42 -5 -51 -11 -120 -88 -41 -46
-121 -131 -176 -189 -94 -98 -184 -217 -184 -245 0 -28 416 -196 785 -318 327
-108 865 -255 1123 -307 129 -26 269 -28 337 -4 135 45 241 172 450 534 108
187 122 206 162 225 39 19 60 18 233 -9 143 -23 395 -38 580 -34 l165 3 0
2960 0 2959 -159 18 c-431 48 -803 150 -1170 322 l-95 44 -1480 -2565z m1669
2166 c167 -103 361 -182 543 -220 131 -28 336 -29 447 -4 41 10 85 20 98 22
19 5 22 1 22 -28 -1 -178 -150 -5042 -155 -5047 -25 -25 -671 -41 -915 -23
-543 40 -1060 156 -1525 342 -126 50 -381 173 -506 244 -187 107 -541 355
-603 424 -18 20 14 78 1210 2210 l1228 2189 36 -28 c20 -16 74 -52 120 -81z"/>
<path d="M14300 9374 c-367 -172 -800 -289 -1205 -326 l-135 -12 0 -2963 0
-2963 33 0 c18 0 43 -7 55 -16 18 -13 22 -25 22 -73 0 -69 -21 -103 -75 -121
l-35 -12 0 -349 c0 -206 4 -349 9 -349 5 0 94 7 198 15 388 31 499 62 582 161
60 74 90 158 156 441 24 106 55 214 69 240 52 103 134 150 321 183 264 47
1082 230 1143 256 19 8 50 14 68 14 43 0 67 -35 67 -96 0 -35 -6 -51 -28 -74
-33 -34 -53 -42 -265 -104 -260 -76 -354 -95 -514 -107 -271 -19 -425 -76
-552 -203 -112 -113 -173 -261 -193 -471 -7 -76 -6 -96 9 -131 l18 -42 48 5
c250 24 657 99 1024 187 312 75 901 233 978 262 141 53 250 142 294 241 29 66
35 195 15 315 -37 221 -30 314 33 445 71 144 198 237 445 323 171 60 463 210
458 236 -3 18 -2952 5119 -2960 5121 -4 1 -42 -14 -83 -33z"/>
<path d="M3213 8765 c-130 -23 -168 -63 -145 -151 25 -94 435 -939 452 -932 7
3 592 339 599 344 2 2 -22 52 -52 111 -30 59 -71 155 -91 212 -87 249 -191
363 -380 411 -93 24 -268 26 -383 5z"/>
<path d="M21051 7548 c-29 -50 -110 -181 -181 -292 -142 -225 -181 -295 -205
-381 -36 -123 1 -226 169 -467 91 -130 158 -195 175 -172 3 5 75 101 160 214
201 269 566 821 550 833 -2 2 -128 75 -279 161 -151 87 -289 167 -305 177
l-31 18 -53 -91z"/>
<path d="M6840 4777 c-14 -7 -45 -29 -70 -48 -25 -19 -110 -72 -189 -119 -92
-54 -170 -109 -214 -150 l-70 -66 122 -94 c276 -214 818 -578 844 -567 12 5
357 597 357 613 0 7 -501 333 -648 421 -42 25 -95 29 -132 10z"/>
<path d="M17270 4023 c-85 -46 -238 -126 -340 -176 -149 -73 -195 -101 -236
-141 -73 -74 -80 -105 -66 -314 7 -92 15 -227 18 -299 5 -100 9 -133 19 -133
22 0 355 136 545 222 258 117 590 291 590 309 0 20 -352 619 -363 618 -7 0
-82 -39 -167 -86z"/>
<path d="M11705 2897 c-80 -21 -122 -46 -174 -103 -77 -84 -248 -438 -236
-487 6 -23 15 -24 228 -50 391 -48 960 -88 979 -69 4 4 7 163 6 353 l-3 344
-50 7 c-27 3 -196 9 -375 12 -251 5 -336 3 -375 -7z"/>
</g>
</svg>
